<svg xmlns="http://www.w3.org/2000/svg" viewBox="0 0 160 160">
  <defs>
    <filter id="softShadow" x="-35%" y="-35%" width="170%" height="170%">
      <feDropShadow dx="0" dy="6" stdDeviation="6" flood-color="#9d6e84" flood-opacity="0.2"/>
    </filter>
  </defs>
  <ellipse cx="80" cy="138" rx="28" ry="10" fill="#71856d" fill-opacity="0.16"/>
  <g filter="url(#softShadow)" stroke-linecap="round" stroke-linejoin="round">
    <ellipse cx="56" cy="80" rx="20" ry="30" fill="#ffd8e7" fill-opacity="0.84" stroke="#e7a9c2" stroke-width="3.2"/>
    <ellipse cx="104" cy="80" rx="20" ry="30" fill="#ffd8e7" fill-opacity="0.84" stroke="#e7a9c2" stroke-width="3.2"/>
    <ellipse cx="60" cy="92" rx="14" ry="20" fill="#fff6fb" fill-opacity="0.42"/>
    <ellipse cx="100" cy="92" rx="14" ry="20" fill="#fff6fb" fill-opacity="0.42"/>
    <path d="M80 76c-16 0-29 12-29 28v8c0 10 14 18 29 18s29-8 29-18v-8c0-16-13-28-29-28Z" fill="#ffa8c9" stroke="#a77c8c" stroke-width="4.2"/>
    <circle cx="80" cy="54" r="23" fill="#fff2e2" stroke="#9d857c" stroke-width="4.2"/>
    <path d="M62 41c4-9 11-14 18-14 7 0 14 5 18 14-6-1-12 0-18 3-6-3-12-4-18-3Z" fill="#ff8fb4" stroke="#c16a88" stroke-width="3.8"/>
    <path d="M71 31c-2-6-6-10-10-12" fill="none" stroke="#b58296" stroke-width="2.8"/>
    <path d="M89 31c2-6 6-10 10-12" fill="none" stroke="#b58296" stroke-width="2.8"/>
    <circle cx="71" cy="56" r="3.5" fill="#4e4a58"/>
    <circle cx="89" cy="56" r="3.5" fill="#4e4a58"/>
    <path d="M73 67c3 3 11 3 14 0" fill="none" stroke="#4e4a58" stroke-width="3.2"/>
    <path d="M70 113 64 132" fill="none" stroke="#8da06c" stroke-width="4"/>
    <path d="M90 113 96 132" fill="none" stroke="#8da06c" stroke-width="4"/>
  </g>
</svg>
